<svg xmlns="http://www.w3.org/2000/svg" viewBox="0 0 24 24" id="File-Audio--Streamline-Font-Awesome" height="24" width="24">
  <desc>
    File Audio Streamline Icon: https://streamlinehq.com
  </desc>
<!--! Font Awesome Free 6.5.2 by @fontawesome - https://fontawesome.com License - https://fontawesome.com/license/free (Icons: CC BY 4.0, Fonts: SIL OFL 1.1, Code: MIT License) Copyright 2024 Fonticons, Inc.-->
  <path d="M6.12 0.24c-1.62159375 0 -2.94 1.31840625 -2.94 2.94v17.64c0 1.62159375 1.31840625 2.94 2.94 2.94h11.76c1.62159375 0 2.94 -1.31840625 2.94 -2.94V7.59h-5.88c-0.81309375 0 -1.47 -0.65690625 -1.47 -1.47V0.24H6.12Zm8.82 0v5.88h5.88L14.94 0.24Zm0.091875 10.39565625c1.70428125 1.029 2.848125 2.89865625 2.848125 5.03934375s-1.14384375 4.01034375 -2.848125 5.03934375c-0.349125 0.2113125 -0.7993125 0.09646875 -1.010625 -0.2480625s-0.09646875 -0.7993125 0.2480625 -1.010625c1.28625 -0.77175 2.1406875 -2.1774375 2.1406875 -3.78065625s-0.8544375 -3.00890625 -2.13609375 -3.78065625c-0.349125 -0.2113125 -0.459375 -0.6615 -0.2480625 -1.010625s0.6615 -0.459375 1.010625 -0.2480625Zm-4.22165625 1.41946875c0.275625 0.11484375 0.45478125 0.38128125 0.45478125 0.679875v5.88c0 0.29859375 -0.17915625 0.56503125 -0.45478125 0.679875s-0.59259375 0.05053125 -0.7993125 -0.16078125L8.3893125 17.5125H6.855c-0.40425 0 -0.735 -0.33075 -0.735 -0.735v-2.205c0 -0.40425 0.33075 -0.735 0.735 -0.735h1.5343125l1.62159375 -1.62159375c0.2113125 -0.2113125 0.52828125 -0.27103125 0.7993125 -0.16078125Zm2.3428125 1.60321875c0.3031875 -0.27103125 0.76715625 -0.24346875 1.0381875 0.05971875 0.46396875 0.5145 0.74878125 1.2035625 0.74878125 1.9569375s-0.2848125 1.4424375 -0.74878125 1.96153125c-0.27103125 0.3031875 -0.735 0.32615625 -1.0381875 0.05971875s-0.32615625 -0.735 -0.05971875 -1.0381875c0.23428125 -0.26184375 0.37209375 -0.60178125 0.37209375 -0.97846875s-0.14240625 -0.72121875 -0.37209375 -0.97846875c-0.27103125 -0.3031875 -0.24346875 -0.76715625 0.05971875 -1.0381875Z" fill="#000000" stroke-width="0.0625"></path>
</svg>