<svg xmlns="http://www.w3.org/2000/svg" viewBox="0 0 16 16" id="File-Word--Streamline-Font-Awesome" height="16" width="16">
  <desc>
    File Word Streamline Icon: https://streamlinehq.com
  </desc>
<!--! Font Awesome Free 6.5.2 by @fontawesome - https://fontawesome.com License - https://fontawesome.com/license/free (Icons: CC BY 4.0, Fonts: SIL OFL 1.1, Code: MIT License) Copyright 2024 Fonticons, Inc.-->
  <path d="M4.08 0.15999999999999998c-1.0810624999999998 0 -1.96 0.8789374999999999 -1.96 1.96v11.76c0 1.0810624999999998 0.8789374999999999 1.96 1.96 1.96h7.84c1.0810624999999998 0 1.96 -0.8789374999999999 1.96 -1.96V5.06h-3.92c-0.5420624999999999 0 -0.98 -0.4379375 -0.98 -0.98V0.15999999999999998H4.08Zm5.88 0v3.92h3.92L9.959999999999999 0.15999999999999998ZM5.519375 8.0336875l0.82075 2.73175L7.307875 8c0.104125 -0.294 0.3828125 -0.4930625 0.6951875 -0.4930625S8.594124999999998 7.702937499999999 8.69825 8l0.9677499999999999 2.7654375 0.8146249999999999 -2.73175c0.116375 -0.3889375 0.5267499999999999 -0.6094375 0.9156875 -0.4930625s0.6094375 0.5267499999999999 0.4930625 0.9156875l-1.47 4.8999999999999995c-0.091875 0.30624999999999997 -0.3675 0.5175624999999999 -0.6859999999999999 0.5236875s-0.606375 -0.18987500000000002 -0.7104999999999999 -0.4930625L8 10.468375l-1.0198125 2.9185625c-0.104125 0.300125 -0.39199999999999996 0.49918749999999995 -0.7104999999999999 0.4930625s-0.5971875 -0.21743749999999998 -0.6859999999999999 -0.5236875l-1.47 -4.8999999999999995c-0.116375 -0.3889375 0.104125 -0.7993124999999999 0.4930625 -0.9156875s0.7993124999999999 0.104125 0.9156875 0.4930625Z" fill="#000000" stroke-width="0.0417"></path>
</svg>