<svg xmlns="http://www.w3.org/2000/svg" viewBox="0 0 16 16" id="File-Pdf--Streamline-Font-Awesome" height="16" width="16">
  <desc>
    File Pdf Streamline Icon: https://streamlinehq.com
  </desc>
<!--! Font Awesome Free 6.5.2 by @fontawesome - https://fontawesome.com License - https://fontawesome.com/license/free (Icons: CC BY 4.0, Fonts: SIL OFL 1.1, Code: MIT License) Copyright 2024 Fonticons, Inc.-->
  <path d="M0.405 2.12c0 -1.0810625 0.8789375 -1.96 1.96 -1.96h4.9v3.92c0 0.5420625 0.4379375 0.98 0.98 0.98h3.92v4.41H5.795c-1.0810625 0 -1.96 0.8789375 -1.96 1.96v4.41H2.365c-1.0810625 0 -1.96 -0.8789375 -1.96 -1.96V2.12Zm11.76 1.96H8.245V0.16l3.92 3.92ZM5.795 10.94h0.98c0.9463125 0 1.715 0.7686875 1.715 1.715s-0.7686875 1.715 -1.715 1.715h-0.49v0.98c0 0.2695 -0.2205 0.49 -0.49 0.49s-0.49 -0.2205 -0.49 -0.49V11.43c0 -0.2695 0.2205 -0.49 0.49 -0.49Zm0.98 2.45c0.4073125 0 0.735 -0.3276875 0.735 -0.735s-0.3276875 -0.735 -0.735 -0.735h-0.49v1.47h0.49Zm2.94 -2.45h0.98c0.8115625 0 1.47 0.6584375 1.47 1.47v1.96c0 0.8115625 -0.6584375 1.47 -1.47 1.47h-0.98c-0.2695 0 -0.49 -0.2205 -0.49 -0.49V11.43c0 -0.2695 0.2205 -0.49 0.49 -0.49Zm0.98 3.92c0.2695 0 0.49 -0.2205 0.49 -0.49v-1.96c0 -0.2695 -0.2205 -0.49 -0.49 -0.49h-0.49v2.94h0.49Zm2.45 -3.43c0 -0.2695 0.2205 -0.49 0.49 -0.49h1.47c0.2695 0 0.49 0.2205 0.49 0.49s-0.2205 0.49 -0.49 0.49H14.125v0.98h0.98c0.2695 0 0.49 0.2205 0.49 0.49s-0.2205 0.49 -0.49 0.49H14.125v1.47c0 0.2695 -0.2205 0.49 -0.49 0.49s-0.49 -0.2205 -0.49 -0.49V11.43Z" fill="#000000" stroke-width="0.0313"></path>
</svg>