<svg xmlns="http://www.w3.org/2000/svg" viewBox="0 0 16 16" id="File-Lines--Streamline-Font-Awesome" height="16" width="16">
  <desc>
    File Lines Streamline Icon: https://streamlinehq.com
  </desc>
<!--! Font Awesome Free 6.5.2 by @fontawesome - https://fontawesome.com License - https://fontawesome.com/license/free (Icons: CC BY 4.0, Fonts: SIL OFL 1.1, Code: MIT License) Copyright 2024 Fonticons, Inc.-->
  <path d="M4.08 0.15999999999999998c-1.0810624999999998 0 -1.96 0.8789374999999999 -1.96 1.96v11.76c0 1.0810624999999998 0.8789374999999999 1.96 1.96 1.96h7.84c1.0810624999999998 0 1.96 -0.8789374999999999 1.96 -1.96V5.06h-3.92c-0.5420624999999999 0 -0.98 -0.4379375 -0.98 -0.98V0.15999999999999998H4.08Zm5.88 0v3.92h3.92L9.959999999999999 0.15999999999999998ZM5.549999999999999 8h4.8999999999999995c0.26949999999999996 0 0.49 0.22049999999999997 0.49 0.49s-0.22049999999999997 0.49 -0.49 0.49H5.549999999999999c-0.26949999999999996 0 -0.49 -0.22049999999999997 -0.49 -0.49S5.2805 8 5.549999999999999 8Zm0 1.96h4.8999999999999995c0.26949999999999996 0 0.49 0.22049999999999997 0.49 0.49s-0.22049999999999997 0.49 -0.49 0.49H5.549999999999999c-0.26949999999999996 0 -0.49 -0.22049999999999997 -0.49 -0.49s0.22049999999999997 -0.49 0.49 -0.49Zm0 1.96h4.8999999999999995c0.26949999999999996 0 0.49 0.22049999999999997 0.49 0.49s-0.22049999999999997 0.49 -0.49 0.49H5.549999999999999c-0.26949999999999996 0 -0.49 -0.22049999999999997 -0.49 -0.49s0.22049999999999997 -0.49 0.49 -0.49Z" fill="#000000" stroke-width="0.0417"></path>
</svg>