<svg xmlns="http://www.w3.org/2000/svg" viewBox="0 0 24 24" id="File-Video--Streamline-Font-Awesome" height="24" width="24">
  <desc>
    File Video Streamline Icon: https://streamlinehq.com
  </desc>
<!--! Font Awesome Free 6.5.2 by @fontawesome - https://fontawesome.com License - https://fontawesome.com/license/free (Icons: CC BY 4.0, Fonts: SIL OFL 1.1, Code: MIT License) Copyright 2024 Fonticons, Inc.-->
  <path d="M6.12 0.24c-1.62159375 0 -2.94 1.31840625 -2.94 2.94v17.64c0 1.62159375 1.31840625 2.94 2.94 2.94h11.76c1.62159375 0 2.94 -1.31840625 2.94 -2.94V7.59h-5.88c-0.81309375 0 -1.47 -0.65690625 -1.47 -1.47V0.24H6.12Zm8.82 0v5.88h5.88L14.94 0.24ZM6.12 13.47c0 -0.81309375 0.65690625 -1.47 1.47 -1.47H12c0.81309375 0 1.47 0.65690625 1.47 1.47v4.41c0 0.81309375 -0.65690625 1.47 -1.47 1.47h-4.41c-0.81309375 0 -1.47 -0.65690625 -1.47 -1.47v-4.41Zm10.88259375 5.04853125L14.94 17.145v-2.94l2.06259375 -1.37353125c0.091875 -0.05971875 0.202125 -0.09646875 0.312375 -0.09646875 0.312375 0 0.56503125 0.25265625 0.56503125 0.56503125v4.7499375c0 0.312375 -0.25265625 0.56503125 -0.56503125 0.56503125 -0.11025 0 -0.2205 -0.03215625 -0.312375 -0.09646875Z" fill="#000000" stroke-width="0.0625"></path>
</svg>