<svg xmlns="http://www.w3.org/2000/svg" viewBox="0 0 16 16" id="File-Excel--Streamline-Font-Awesome" height="16" width="16">
  <desc>
    File Excel Streamline Icon: https://streamlinehq.com
  </desc>
<!--! Font Awesome Free 6.5.2 by @fontawesome - https://fontawesome.com License - https://fontawesome.com/license/free (Icons: CC BY 4.0, Fonts: SIL OFL 1.1, Code: MIT License) Copyright 2024 Fonticons, Inc.-->
  <path d="M4.08 0.15999999999999998c-1.0810624999999998 0 -1.96 0.8789374999999999 -1.96 1.96v11.76c0 1.0810624999999998 0.8789374999999999 1.96 1.96 1.96h7.84c1.0810624999999998 0 1.96 -0.8789374999999999 1.96 -1.96V5.06h-3.92c-0.5420624999999999 0 -0.98 -0.4379375 -0.98 -0.98V0.15999999999999998H4.08Zm5.88 0v3.92h3.92L9.959999999999999 0.15999999999999998Zm-3.0716875 7.662374999999999L8 9.4118125l1.1116875 -1.5894375c0.23275 -0.33381249999999996 0.692125 -0.41343749999999996 1.022875 -0.1806875s0.41343749999999996 0.692125 0.1806875 1.022875L8.8973125 10.695l1.4209999999999998 2.0273749999999997c0.23275 0.33381249999999996 0.15312499999999998 0.790125 -0.1806875 1.022875s-0.790125 0.15312499999999998 -1.022875 -0.1806875L8 11.975125l-1.1116875 1.5894375c-0.23275 0.33381249999999996 -0.692125 0.41343749999999996 -1.022875 0.1806875s-0.41343749999999996 -0.692125 -0.1806875 -1.022875l1.4179375 -2.0273749999999997 -1.4209999999999998 -2.0273749999999997c-0.23275 -0.33381249999999996 -0.15312499999999998 -0.790125 0.1806875 -1.022875s0.790125 -0.15312499999999998 1.022875 0.1806875Z" fill="#000000" stroke-width="0.0417"></path>
</svg>