<svg xmlns="http://www.w3.org/2000/svg" viewBox="0 0 16 16" id="File-Zipper--Streamline-Font-Awesome" height="16" width="16">
  <desc>
    File Zipper Streamline Icon: https://streamlinehq.com
  </desc>
<!--! Font Awesome Free 6.5.2 by @fontawesome - https://fontawesome.com License - https://fontawesome.com/license/free (Icons: CC BY 4.0, Fonts: SIL OFL 1.1, Code: MIT License) Copyright 2024 Fonticons, Inc.-->
  <path d="M4.08 0.15999999999999998c-1.0810624999999998 0 -1.96 0.8789374999999999 -1.96 1.96v11.76c0 1.0810624999999998 0.8789374999999999 1.96 1.96 1.96h7.84c1.0810624999999998 0 1.96 -0.8789374999999999 1.96 -1.96V5.06h-3.92c-0.5420624999999999 0 -0.98 -0.4379375 -0.98 -0.98V0.15999999999999998H4.08Zm5.88 0v3.92h3.92L9.959999999999999 0.15999999999999998Zm-4.8999999999999995 1.47c0 -0.26949999999999996 0.22049999999999997 -0.49 0.49 -0.49h0.98c0.26949999999999996 0 0.49 0.22049999999999997 0.49 0.49s-0.22049999999999997 0.49 -0.49 0.49H5.549999999999999c-0.26949999999999996 0 -0.49 -0.22049999999999997 -0.49 -0.49Zm0 1.96c0 -0.26949999999999996 0.22049999999999997 -0.49 0.49 -0.49h0.98c0.26949999999999996 0 0.49 0.22049999999999997 0.49 0.49s-0.22049999999999997 0.49 -0.49 0.49H5.549999999999999c-0.26949999999999996 0 -0.49 -0.22049999999999997 -0.49 -0.49Zm0 1.96c0 -0.26949999999999996 0.22049999999999997 -0.49 0.49 -0.49h0.98c0.26949999999999996 0 0.49 0.22049999999999997 0.49 0.49s-0.22049999999999997 0.49 -0.49 0.49H5.549999999999999c-0.26949999999999996 0 -0.49 -0.22049999999999997 -0.49 -0.49Zm-0.19293749999999998 2.198875c0.1133125 -0.42874999999999996 0.50225 -0.7288749999999999 0.9463125 -0.7288749999999999h0.45325c0.4440625 0 0.833 0.2970625 0.9463125 0.7288749999999999L7.932625 10.45c0.042874999999999996 0.165375 0.0643125 0.33381249999999996 0.0643125 0.50225 0 1.0779999999999998 -0.8819999999999999 1.9508124999999998 -1.96 1.9508124999999998s-1.96 -0.8728125 -1.96 -1.9508124999999998c0 -0.16843750000000002 0.021437499999999998 -0.3399375 0.0643125 -0.50225l0.7196875 -2.7011249999999998ZM5.549999999999999 10.45c-0.26949999999999996 0 -0.49 0.22049999999999997 -0.49 0.49s0.22049999999999997 0.49 0.49 0.49h0.98c0.26949999999999996 0 0.49 -0.22049999999999997 0.49 -0.49s-0.22049999999999997 -0.49 -0.49 -0.49H5.549999999999999Z" fill="#000000" stroke-width="0.0417"></path>
</svg>