<svg viewBox="0 0 24 24" fill="none" xmlns="http://www.w3.org/2000/svg" id="Menu-Dots--Streamline-Solar" height="24" width="24">
  <desc>
    Menu Dots Streamline Icon: https://streamlinehq.com
  </desc>
  <path d="M7 12c0 1.1046 -0.89543 2 -2 2s-2 -0.8954 -2 -2 0.89543 -2 2 -2 2 0.8954 2 2Z" fill="#000000" stroke-width="1"></path>
  <path d="M14 12c0 1.1046 -0.8954 2 -2 2s-2 -0.8954 -2 -2 0.8954 -2 2 -2 2 0.8954 2 2Z" fill="#000000" stroke-width="1"></path>
  <path d="M21 12c0 1.1046 -0.8954 2 -2 2s-2 -0.8954 -2 -2 0.8954 -2 2 -2 2 0.8954 2 2Z" fill="#000000" stroke-width="1"></path>
</svg>