<svg xmlns="http://www.w3.org/2000/svg" fill="none" viewBox="0 0 24 24" id="Notifications-Off--Streamline-Outlined-Material" height="24" width="24">
  <desc>
    Notifications Off Streamline Icon: https://streamlinehq.com
  </desc>
  <path fill="#000000" d="M4 19v-1.5h2V9.9c0 -0.55 0.06875 -1.09165 0.20625 -1.625 0.1375 -0.53335 0.34375 -1.04165 0.61875 -1.525l1.125 1.125c-0.15 0.31665 -0.2625 0.6455 -0.3375 0.9865 -0.075 0.341 -0.1125 0.68715 -0.1125 1.0385V17.5h7.975L1.875 3.875l1.05 -1.05L21.075 21l-1.05 1.05 -3.05 -3.05H4Zm14 -3.225 -1.5 -1.5V9.9c0 -1.25 -0.4375 -2.3125 -1.3125 -3.1875S13.25 5.4 12 5.4c-0.58565 0 -1.14875 0.10835 -1.68925 0.325S9.3 6.25835 8.9 6.675l-1.15 -1.125c0.38335 -0.38335 0.80415 -0.7 1.2625 -0.95 0.45835 -0.25 0.95415 -0.433335 1.4875 -0.55V3.5c0 -0.416665 0.14585 -0.770835 0.4375 -1.0625C11.22915 2.145835 11.58335 2 12 2c0.41665 0 0.77085 0.145835 1.0625 0.4375C13.35415 2.729165 13.5 3.083335 13.5 3.5v0.55c1.35 0.283335 2.4375 0.97915 3.2625 2.0875C17.5875 7.24585 18 8.5 18 9.9v5.875ZM12 22c-0.55 0 -1.02085 -0.19585 -1.4125 -0.5875C10.19585 21.02085 10 20.55 10 20h4c0 0.55 -0.19585 1.02085 -0.5875 1.4125C13.02085 21.80415 12.55 22 12 22Z" stroke-width="0.5"></path>
</svg>