<svg xmlns="http://www.w3.org/2000/svg" fill="none" viewBox="-1 -1 32 32" id="Notifications-Outline--Streamline-Ionic-Outline" height="32" width="32">
  <desc>
    Notifications Outline Streamline Icon: https://streamlinehq.com
  </desc>
  <path stroke="#0a80a6" stroke-linecap="round" stroke-linejoin="round" d="M26.267312500000003 21.262625c-1.6852500000000001 -2.0626249999999997 -2.8750625000000003 -3.112625 -2.8750625000000003 -8.7990625 0 -5.2073125 -2.659125 -7.0625 -4.8477500000000004 -7.9635625 -0.2906875 -0.1194375 -0.5643125 -0.39375 -0.6529375 -0.6923124999999999 -0.38387499999999997 -1.306625 -1.460125 -2.4576875 -2.8908125 -2.4576875 -1.4305625 0 -2.5075625 1.15175 -2.8875 2.4589374999999998 -0.08856249999999999 0.301875 -0.36225 0.5716249999999999 -0.6529375 0.6910624999999999 -2.1912499999999997 0.9023125 -4.8477500000000004 2.7510000000000003 -4.8477500000000004 7.9635625C6.6093125 18.15 5.4195 19.2 3.7342500000000003 21.262625 3.0359999999999996 22.117062500000003 3.6476249999999997 23.4 4.8689375 23.4h20.27025c1.2146875 0 1.822375 -1.2868750000000002 1.128125 -2.137375Z" stroke-width="2"></path>
  <path stroke="#0a80a6" stroke-linecap="round" stroke-linejoin="round" d="M19.200625 23.4v1.05c0 1.1139375 -0.4425 2.182125 -1.230125 2.9698124999999997 -0.7876875 0.787625 -1.8559999999999999 1.2301875 -2.969875 1.2301875s-2.18225 -0.44256249999999997 -2.969875 -1.2301875c-0.7875624999999999 -0.7876875 -1.230125 -1.855875 -1.230125 -2.9698124999999997v-1.05" stroke-width="2"></path>
</svg>