<svg id="Phone--Streamline-Carbon" xmlns="http://www.w3.org/2000/svg" viewBox="0 0 16 16" height="16" width="16">
  <desc>
    Phone Streamline Icon: https://streamlinehq.com
  </desc>
  <defs></defs>
  <title>phone</title>
  <path d="M13 14.5h-0.085C3.09 13.935 1.695 5.645 1.5 3.115A1.5 1.5 0 0 1 2.88 1.5h2.755a1 1 0 0 1 0.93 0.63L7.325 4a1 1 0 0 1 -0.22 1.08l-1.065 1.075a4.685 4.685 0 0 0 3.79 3.8l1.085 -1.075a1 1 0 0 1 1.085 -0.205l1.885 0.755A1 1 0 0 1 14.5 10.36V13a1.5 1.5 0 0 1 -1.5 1.5ZM3 2.5a0.5 0.5 0 0 0 -0.5 0.5v0.04C2.73 6 4.205 13 12.97 13.5a0.5 0.5 0 0 0 0.53 -0.47v-2.67l-1.885 -0.755 -1.435 1.425 -0.24 -0.03c-4.35 -0.545 -4.94 -4.895 -4.94 -4.94l-0.03 -0.24 1.42 -1.435L5.64 2.5Z" fill="#000000" stroke-width="0.5"></path>
  <path id="_Transparent_Rectangle_" d="M0 0h16v16H0Z" fill="none" stroke-width="0.5"></path>
</svg>