<svg viewBox="-0.75 -0.75 24 24" fill="none" xmlns="http://www.w3.org/2000/svg" id="Refresh--Streamline-Solar-Ar" height="24" width="24">
  <desc>
    Refresh Streamline Icon: https://streamlinehq.com
  </desc>
  <path d="m3.4498218749999996 10.624968749999999 -0.703125 0 0.703125 0Zm0 1.5625312500000001 -0.495225 0.499125c0.274134375 0.27196875000000004 0.716315625 0.27196875000000004 0.99045 0L3.4498218749999996 12.1875Zm2.07005625 -1.06340625c0.27566250000000003 -0.27346875000000004 0.27740625 -0.7186874999999999 0.0039 -0.9943124999999999 -0.27350625 -0.27571874999999996 -0.718696875 -0.27740625 -0.994359375 -0.0039375l0.9904593749999999 0.99825Zm-3.149653125 -0.99825c-0.27566250000000003 -0.27346875000000004 -0.720853125 -0.27178125 -0.994359375 0.0039375 -0.27350625 0.275625 -0.27175312500000004 0.72084375 0.003909375 0.9943124999999999l0.99045 -0.99825ZM17.452125000000002 6.930740624999999c0.20334375000000002 0.33080625 0.6363749999999999 0.43411875 0.96721875 0.230746875 0.33075 -0.203371875 0.4340625 -0.6364218749999999 0.23071875 -0.9672281249999999l-1.1979375 0.73648125ZM11.32396875 2.109375c-4.731890625 0 -8.577271875 3.8073750000000004 -8.577271875 8.515593749999999h1.40625c0 -3.9211687499999996 3.205340625 -7.109343750000001 7.171021875 -7.109343750000001v-1.40625Zm-8.577271875 8.515593749999999 0 1.5625312500000001 1.40625 0 0 -1.5625312500000001 -1.40625 0Zm1.19835 2.06165625 1.5748312500000001 -1.5625312500000001 -0.9904593749999999 -0.99825 -1.574821875 1.5625312500000001 0.99045 0.99825Zm0 -0.99825 -1.574821875 -1.5625312500000001 -0.99045 0.99825 1.574821875 1.5625312500000001 0.99045 -0.99825ZM18.6500625 6.194259375000001C17.1440625 3.744628125 14.425593749999999 2.109375 11.32396875 2.109375v1.40625c2.59640625 0 4.869187500000001 1.367296875 6.12815625 3.4151156250000003l1.1979375 -0.73648125Z" fill="#000000" stroke-width="1.5"></path>
  <path d="m19.04428125 10.3125 0.49425 -0.5000625c-0.27384375000000005 -0.27075 -0.71465625 -0.27075 -0.9885 0l0.49425 0.5000625Zm-2.07515625 1.06246875c-0.2761875 0.27290625 -0.27871875 0.718125 -0.0058125 0.9943124999999999 0.273 0.2761875 0.71821875 0.2788125 0.9944062499999999 0.0058125l-0.9885937499999999 -1.000125Zm3.16171875 1.000125c0.2761875 0.273 0.7214062499999999 0.270375 0.9943124999999999 -0.0058125 0.273 -0.2761875 0.27046875 -0.7214062499999999 -0.005718750000000001 -0.9944062499999999l-0.9885937499999999 1.00021875Zm-15.145275 3.193125c-0.20394375 -0.33046875 -0.6371625000000001 -0.43303125 -0.967621875 -0.22903125 -0.33046875 0.20390625 -0.43303125 0.6371249999999999 -0.229096875 0.96759375l1.19671875 -0.7385624999999999ZM11.14003125 20.390625c4.746 0 8.607375000000001 -3.8048437500000003 8.607375000000001 -8.515593749999999h-1.40625c0 3.9186562499999997 -3.2162812499999998 7.109343750000001 -7.201124999999999 7.109343750000001v1.40625Zm8.607375000000001 -8.515593749999999V10.3125h-1.40625v1.5625312500000001h1.40625Zm-1.1973749999999999 -2.06259375 -1.58090625 1.5625312500000001 0.9885937499999999 1.000125 1.5808125 -1.5625312500000001 -0.9885 -1.000125Zm0 1.000125 1.5808125 1.5625312500000001 0.9885937499999999 -1.00021875 -1.58090625 -1.5624375000000001 -0.9885 1.000125ZM3.7888499999999996 16.30678125C5.300671875 18.7565625 8.028778125 20.390625 11.14003125 20.390625v-1.40625c-2.6085656249999998 0 -4.89080625 -1.36846875 -6.154462499999999 -3.41615625l-1.19671875 0.7385624999999999Z" fill="#000000" stroke-width="1.5"></path>
</svg>