<svg xmlns="http://www.w3.org/2000/svg" fill="none" viewBox="0 0 24 24" id="Refresh-Circle-Sharp--Streamline-Ionic-Sharp" height="24" width="24">
  <desc>
    Refresh Circle Sharp Streamline Icon: https://streamlinehq.com
  </desc>
  <path fill="#f0a20e" d="M12 0.24C5.5156 0.24 0.24 5.51615 0.24 12 0.24 18.494 5.506 23.76 12 23.76c6.4844 0 11.76 -5.2756 11.76 -11.76C23.76 5.5054 18.4946 0.24 12 0.24Zm5.3146 12.3819c0 1.05115 -0.31165 2.0787 -0.8957 2.95265 -0.58395 0.874 -1.414 1.55515 -2.3851 1.95745 -0.9711 0.4022 -2.03965 0.5075 -3.0706 0.3024 -1.03095 -0.20505 -1.9779 -0.7112 -2.7212 -1.4545 -0.74325 -0.7432 -1.24945 -1.6902 -1.4545 -2.72115 -0.20505 -1.03095 -0.09985 -2.09955 0.30245 -3.0706 0.40225 -0.97115 1.0834 -1.80115 1.9574 -2.3852 0.874 -0.58395 1.90155 -0.8956 2.95265 -0.8956h0.23805l-1.35695 -1.35695L12 4.8309l3.38095 3.38105L12 11.5929l-1.1195 -1.1194 1.57855 -1.57855c-0.1357 -0.00455 -0.28945 -0.00455 -0.45905 -0.00455 -0.73805 0 -1.4595 0.21885 -2.07315 0.62885 -0.6136 0.41 -1.0919 0.99285 -1.37435 1.6747 -0.2824 0.6818 -0.3563 1.4321 -0.21235 2.156 0.14405 0.72385 0.49945 1.38875 1.02125 1.9106 0.52185 0.52185 1.18675 0.8772 1.91065 1.02125 0.72385 0.14395 1.4741 0.07 2.1559 -0.21235 0.6819 -0.28245 1.26465 -0.7608 1.6747 -1.37435 0.41005 -0.6137 0.6289 -1.3351 0.6289 -2.0732v-0.7915h1.58305v0.7915Z" stroke-width="0.5"></path>
</svg>