<svg xmlns="http://www.w3.org/2000/svg" fill="none" viewBox="0 0 24 24" id="Fmd-Bad-Fill--Streamline-Sharp-Fill-Material" height="24" width="24">
  <desc>
    Fmd Bad Fill Streamline Icon: https://streamlinehq.com
  </desc>
  <path fill="#fc0400" d="M11.25 11h1.5V6h-1.5v5Zm0.75 3.5c0.2 0 0.375 -0.075 0.525 -0.225 0.15 -0.15 0.225 -0.325 0.225 -0.525s-0.075 -0.375 -0.225 -0.525c-0.15 -0.15 -0.325 -0.225 -0.525 -0.225s-0.375 0.075 -0.525 0.225c-0.15 0.15 -0.225 0.325 -0.225 0.525s0.075 0.375 0.225 0.525c0.15 0.15 0.325 0.225 0.525 0.225Zm0 7.5c-2.68335 -2.28335 -4.6875 -4.40415 -6.0125 -6.3625C4.6625 13.67915 4 11.86665 4 10.2c0 -2.5 0.804165 -4.49165 2.4125 -5.975C8.02085 2.741665 9.88335 2 12 2c2.11665 0 3.97915 0.741665 5.5875 2.225C19.19585 5.70835 20 7.7 20 10.2c0 1.66665 -0.6625 3.47915 -1.9875 5.4375C16.6875 17.59585 14.68335 19.71665 12 22Z" stroke-width="0.5"></path>
</svg>