<svg id="Gear--Streamline-Atlas" xmlns="http://www.w3.org/2000/svg" viewBox="-1 -1 32 32" height="32" width="32">
  <desc>
    Gear Streamline Icon: https://streamlinehq.com
  </desc>
  <defs></defs>
  <path d="M25.7375 15a10.149999999999999 10.149999999999999 0 0 0 -0.1875 -1.9625000000000001l2.6125 -1.5 -3.5875000000000004 -6.25 -2.6 1.5a10.8125 10.8125 0 0 0 -3.4000000000000004 -1.9500000000000002V1.875H11.425v3.0125a10.8125 10.8125 0 0 0 -3.4000000000000004 1.9500000000000002l-2.6 -1.5 -3.5875000000000004 6.25 2.6125 1.5a10.362499999999999 10.362499999999999 0 0 0 0 3.9250000000000003l-2.6125 1.5 3.5875000000000004 6.25 2.6 -1.5a10.8125 10.8125 0 0 0 3.4000000000000004 1.9500000000000002v2.9125h7.1499999999999995v-3.0125a10.8125 10.8125 0 0 0 3.4000000000000004 -1.9500000000000002l2.6 1.5 3.5875000000000004 -6.25 -2.6125 -1.5a10.149999999999999 10.149999999999999 0 0 0 0.1875 -1.9125Z" fill="none" stroke="#000000" stroke-miterlimit="10" stroke-width="2"></path>
  <path d="M10.225 15a4.7749999999999995 4.7749999999999995 0 1 0 9.549999999999999 0 4.7749999999999995 4.7749999999999995 0 1 0 -9.549999999999999 0" fill="none" stroke="#000000" stroke-miterlimit="10" stroke-width="2"></path>
</svg>