<svg xmlns="http://www.w3.org/2000/svg" viewBox="0 0 16 16" fill="#000000" id="User-List-Thin--Streamline-Phosphor-Thin" height="16" width="16">
  <desc>
    User List Thin Streamline Icon: https://streamlinehq.com
  </desc>
  <path d="M9.56899375 4.86005625c0 -0.14430625 0.1169875 -0.26129375 0.26129375 -0.26129375h5.74841875c0.20114375 0.0000125 0.3268625 0.2177625 0.22628125 0.39195 -0.046675 0.0808375 -0.13293125 0.1306375 -0.22628125 0.1306375h-5.74841875c-0.1443 -0.00000625 -0.26129375 -0.11699375 -0.26129375 -0.26129375Zm6.0097125 2.8742125h-5.74841875c-0.20114375 0 -0.32685625 0.21774375 -0.2262875 0.3919375 0.046675 0.0808375 0.13294375 0.1306375 0.2262875 0.13064375h5.74841875c0.20114375 -0.00000625 0.3268625 -0.21775625 0.22628125 -0.39195 -0.046675 -0.0808375 -0.13293125 -0.13063125 -0.22628125 -0.13063125Zm0 3.1355h-4.18066875c-0.20114375 0 -0.32685625 0.21774375 -0.22628125 0.3919375 0.04666875 0.0808375 0.1329375 0.13064375 0.22628125 0.13064375h4.18066875c0.20114375 -0.00000625 0.3268625 -0.21775625 0.22628125 -0.39194375 -0.046675 -0.08084375 -0.13293125 -0.1306375 -0.22628125 -0.1306375Zm-6.5407875 1.2411375c0.03596875 0.1396 -0.047925 0.28195625 -0.187475 0.31811875 -0.0213125 0.00566875 -0.04326875 0.008525 -0.065325 0.00849375 -0.119075 -0.0000875 -0.22303125 -0.080675 -0.2528 -0.19596875 -0.4383125 -1.703625 -2.09033125 -2.93953125 -3.92786875 -2.93953125s-3.4889 1.23590625 -3.92786875 2.93953125c-0.0428875 0.19651875 -0.282425 0.2729125 -0.431175 0.1375125 -0.07430625 -0.0676375 -0.10324375 -0.17189375 -0.074425 -0.26815625 0.3867125 -1.50243125 1.6049875 -2.6873875 3.10415 -3.13550625 -1.96170625 -1.0233125 -2.08000625 -3.7864875 -0.2129375 -4.97371875 1.86706875 -1.18723125 4.3192 0.0919125 4.4138375 2.30245 0.0477 1.11423125 -0.55345625 2.15546875 -1.54225625 2.67126875 1.4991625 0.44811875 2.7207 1.633075 3.10414375 3.13550625Zm-4.43346875 -3.331475c1.8102875 -0.00008125 2.94173125 -1.95981875 2.03651875 -3.52753125 -0.9052125 -1.56770625 -3.16806875 -1.56760625 -4.0731375 0.0001875 -0.2063625 0.35746875 -0.31500625 0.76295625 -0.31500625 1.17571875 0 1.29880625 1.05281875 2.3516875 2.351625 2.351625Z" stroke-width="0.0625"></path>
</svg>