<svg xmlns="http://www.w3.org/2000/svg" fill="none" viewBox="-0.5 -0.5 16 16" stroke-linecap="round" stroke-linejoin="round" stroke="#000000" id="Video--Streamline-Mynaui" height="16" width="16">
  <desc>
    Video Streamline Icon: https://streamlinehq.com
  </desc>
  <path d="M1.875 9.84375v-4.6875a1.25 1.25 0 0 1 1.25 -1.25h5.3125a1.25 1.25 0 0 1 1.25 1.25v4.6875a1.25 1.25 0 0 1 -1.25 1.25H3.125a1.25 1.25 0 0 1 -1.25 -1.25m10.73 -5.474375 -2.5 2.226875a0.3125 0.3125 0 0 0 -0.10500000000000001 0.233125v1.11125a0.3125 0.3125 0 0 0 0.10500000000000001 0.233125l2.5 2.226875a0.3125 0.3125 0 0 0 0.52 -0.23375V4.603125a0.3125 0.3125 0 0 0 -0.52 -0.23375" stroke-width="1"></path>
</svg>